<svg width="595" height="842" viewBox="0 0 595 842" fill="none" xmlns="http://www.w3.org/2000/svg">
<rect width="595" height="842" fill="white"/>
<path d="M160.4 326.54C161.28 326.54 162.04 326.88 162.68 327.56L169.04 334.46C165.52 338.82 161.18 342.16 156.02 344.48C150.9 346.8 144.74 347.96 137.54 347.96C131.1 347.96 125.3 346.86 120.14 344.66C115.02 342.46 110.64 339.4 107 335.48C103.36 331.56 100.56 326.88 98.6 321.44C96.68 316 95.72 310.06 95.72 303.62C95.72 297.1 96.8 291.14 98.96 285.74C101.12 280.3 104.16 275.62 108.08 271.7C112 267.78 116.68 264.74 122.12 262.58C127.6 260.38 133.64 259.28 140.24 259.28C146.68 259.28 152.3 260.32 157.1 262.4C161.94 264.44 166.08 267.16 169.52 270.56L164.12 278.06C163.8 278.54 163.38 278.96 162.86 279.32C162.38 279.68 161.7 279.86 160.82 279.86C159.9 279.86 158.96 279.5 158 278.78C157.04 278.06 155.82 277.28 154.34 276.44C152.86 275.6 150.98 274.82 148.7 274.1C146.46 273.38 143.6 273.02 140.12 273.02C136.04 273.02 132.28 273.74 128.84 275.18C125.44 276.58 122.5 278.6 120.02 281.24C117.58 283.88 115.66 287.1 114.26 290.9C112.9 294.66 112.22 298.9 112.22 303.62C112.22 308.5 112.9 312.84 114.26 316.64C115.66 320.44 117.54 323.64 119.9 326.24C122.26 328.84 125.04 330.84 128.24 332.24C131.44 333.6 134.88 334.28 138.56 334.28C140.76 334.28 142.74 334.16 144.5 333.92C146.3 333.68 147.94 333.3 149.42 332.78C150.94 332.26 152.36 331.6 153.68 330.8C155.04 329.96 156.38 328.94 157.7 327.74C158.1 327.38 158.52 327.1 158.96 326.9C159.4 326.66 159.88 326.54 160.4 326.54ZM198.608 257.84V347H183.788V257.84H198.608ZM244.086 284.48C248.686 284.48 252.846 285.22 256.566 286.7C260.326 288.18 263.526 290.28 266.166 293C268.806 295.72 270.846 299.04 272.286 302.96C273.726 306.88 274.446 311.26 274.446 316.1C274.446 320.98 273.726 325.38 272.286 329.3C270.846 333.22 268.806 336.56 266.166 339.32C263.526 342.08 260.326 344.2 256.566 345.68C252.846 347.16 248.686 347.9 244.086 347.9C239.486 347.9 235.306 347.16 231.546 345.68C227.786 344.2 224.566 342.08 221.886 339.32C219.246 336.56 217.186 333.22 215.706 329.3C214.266 325.38 213.546 320.98 213.546 316.1C213.546 311.26 214.266 306.88 215.706 302.96C217.186 299.04 219.246 295.72 221.886 293C224.566 290.28 227.786 288.18 231.546 286.7C235.306 285.22 239.486 284.48 244.086 284.48ZM244.086 336.5C249.206 336.5 252.986 334.78 255.426 331.34C257.906 327.9 259.146 322.86 259.146 316.22C259.146 309.58 257.906 304.52 255.426 301.04C252.986 297.56 249.206 295.82 244.086 295.82C238.886 295.82 235.046 297.58 232.566 301.1C230.086 304.58 228.846 309.62 228.846 316.22C228.846 322.82 230.086 327.86 232.566 331.34C235.046 334.78 238.886 336.5 244.086 336.5ZM304.189 285.44V349.1C304.189 351.78 303.829 354.3 303.109 356.66C302.429 359.02 301.309 361.08 299.749 362.84C298.229 364.64 296.209 366.04 293.689 367.04C291.209 368.08 288.169 368.6 284.569 368.6C283.169 368.6 281.869 368.5 280.669 368.3C279.469 368.14 278.249 367.86 277.009 367.46L277.489 359.48C277.609 358.68 277.929 358.16 278.449 357.92C278.969 357.72 279.969 357.62 281.449 357.62C282.929 357.62 284.169 357.46 285.169 357.14C286.209 356.86 287.029 356.38 287.629 355.7C288.269 355.06 288.709 354.2 288.949 353.12C289.229 352.04 289.369 350.7 289.369 349.1V285.44H304.189ZM306.409 267.5C306.409 268.78 306.149 269.98 305.629 271.1C305.109 272.22 304.409 273.2 303.529 274.04C302.689 274.88 301.689 275.56 300.529 276.08C299.369 276.56 298.129 276.8 296.809 276.8C295.529 276.8 294.309 276.56 293.149 276.08C292.029 275.56 291.049 274.88 290.209 274.04C289.369 273.2 288.689 272.22 288.169 271.1C287.689 269.98 287.449 268.78 287.449 267.5C287.449 266.18 287.689 264.94 288.169 263.78C288.689 262.62 289.369 261.62 290.209 260.78C291.049 259.94 292.029 259.28 293.149 258.8C294.309 258.28 295.529 258.02 296.809 258.02C298.129 258.02 299.369 258.28 300.529 258.8C301.689 259.28 302.689 259.94 303.529 260.78C304.409 261.62 305.109 262.62 305.629 263.78C306.149 264.94 306.409 266.18 306.409 267.5ZM336.596 285.44V324.56C336.596 328.32 337.456 331.24 339.176 333.32C340.936 335.36 343.556 336.38 347.036 336.38C349.596 336.38 351.996 335.82 354.236 334.7C356.476 333.54 358.596 331.96 360.596 329.96V285.44H375.416V347H366.356C364.436 347 363.176 346.1 362.576 344.3L361.556 339.38C360.276 340.66 358.956 341.84 357.596 342.92C356.236 343.96 354.776 344.86 353.216 345.62C351.696 346.34 350.036 346.9 348.236 347.3C346.476 347.74 344.576 347.96 342.536 347.96C339.176 347.96 336.196 347.4 333.596 346.28C331.036 345.12 328.876 343.5 327.116 341.42C325.356 339.34 324.016 336.88 323.096 334.04C322.216 331.16 321.776 328 321.776 324.56V285.44H336.596ZM393.639 347V285.44H402.339C403.859 285.44 404.919 285.72 405.519 286.28C406.119 286.84 406.519 287.8 406.719 289.16L407.619 296.6C409.819 292.8 412.399 289.8 415.359 287.6C418.319 285.4 421.639 284.3 425.319 284.3C428.359 284.3 430.879 285 432.879 286.4L430.959 297.5C430.839 298.22 430.579 298.74 430.179 299.06C429.779 299.34 429.239 299.48 428.559 299.48C427.959 299.48 427.139 299.34 426.099 299.06C425.059 298.78 423.679 298.64 421.959 298.64C418.879 298.64 416.239 299.5 414.039 301.22C411.839 302.9 409.979 305.38 408.459 308.66V347H393.639ZM470.463 284.48C474.343 284.48 477.903 285.1 481.143 286.34C484.423 287.58 487.243 289.4 489.603 291.8C491.963 294.16 493.803 297.08 495.123 300.56C496.443 304 497.103 307.94 497.103 312.38C497.103 313.5 497.043 314.44 496.923 315.2C496.843 315.92 496.663 316.5 496.383 316.94C496.143 317.34 495.803 317.64 495.363 317.84C494.923 318 494.363 318.08 493.683 318.08H455.643C456.083 324.4 457.783 329.04 460.743 332C463.703 334.96 467.623 336.44 472.503 336.44C474.903 336.44 476.963 336.16 478.683 335.6C480.443 335.04 481.963 334.42 483.243 333.74C484.563 333.06 485.703 332.44 486.663 331.88C487.663 331.32 488.623 331.04 489.543 331.04C490.143 331.04 490.663 331.16 491.103 331.4C491.543 331.64 491.923 331.98 492.243 332.42L496.563 337.82C494.923 339.74 493.083 341.36 491.043 342.68C489.003 343.96 486.863 345 484.623 345.8C482.423 346.56 480.163 347.1 477.843 347.42C475.563 347.74 473.343 347.9 471.183 347.9C466.903 347.9 462.923 347.2 459.243 345.8C455.563 344.36 452.363 342.26 449.643 339.5C446.923 336.7 444.783 333.26 443.223 329.18C441.663 325.06 440.883 320.3 440.883 314.9C440.883 310.7 441.563 306.76 442.923 303.08C444.283 299.36 446.223 296.14 448.743 293.42C451.303 290.66 454.403 288.48 458.043 286.88C461.723 285.28 465.863 284.48 470.463 284.48ZM470.763 295.1C466.443 295.1 463.063 296.32 460.623 298.76C458.183 301.2 456.623 304.66 455.943 309.14H483.783C483.783 307.22 483.523 305.42 483.003 303.74C482.483 302.02 481.683 300.52 480.603 299.24C479.523 297.96 478.163 296.96 476.523 296.24C474.883 295.48 472.963 295.1 470.763 295.1Z" fill="black" fill-opacity="0.77"/>
<path d="M117.469 440V472H112.369V401.25H130.419C138.586 401.25 144.686 402.833 148.719 406C152.752 409.133 154.769 413.75 154.769 419.85C154.769 422.55 154.302 425.017 153.369 427.25C152.436 429.483 151.086 431.45 149.319 433.15C147.586 434.817 145.486 436.2 143.019 437.3C140.552 438.367 137.769 439.067 134.669 439.4C135.469 439.9 136.186 440.567 136.819 441.4L161.169 472H156.719C156.186 472 155.719 471.9 155.319 471.7C154.952 471.5 154.586 471.167 154.219 470.7L131.569 442C131.002 441.267 130.386 440.75 129.719 440.45C129.086 440.15 128.086 440 126.719 440H117.469ZM117.469 436.2H129.769C132.902 436.2 135.702 435.833 138.169 435.1C140.669 434.333 142.769 433.25 144.469 431.85C146.202 430.45 147.519 428.767 148.419 426.8C149.319 424.833 149.769 422.617 149.769 420.15C149.769 415.117 148.119 411.383 144.819 408.95C141.519 406.517 136.719 405.3 130.419 405.3H117.469V436.2ZM190.305 421.45C193.105 421.45 195.688 421.933 198.055 422.9C200.455 423.867 202.522 425.283 204.255 427.15C206.022 428.983 207.388 431.25 208.355 433.95C209.355 436.65 209.855 439.75 209.855 443.25C209.855 443.983 209.738 444.483 209.505 444.75C209.305 445.017 208.972 445.15 208.505 445.15H172.555V446.1C172.555 449.833 172.988 453.117 173.855 455.95C174.722 458.783 175.955 461.167 177.555 463.1C179.155 465 181.088 466.433 183.355 467.4C185.622 468.367 188.155 468.85 190.955 468.85C193.455 468.85 195.622 468.583 197.455 468.05C199.288 467.483 200.822 466.867 202.055 466.2C203.322 465.5 204.322 464.883 205.055 464.35C205.788 463.783 206.322 463.5 206.655 463.5C207.088 463.5 207.422 463.667 207.655 464L208.955 465.6C208.155 466.6 207.088 467.533 205.755 468.4C204.455 469.267 202.988 470.017 201.355 470.65C199.755 471.25 198.022 471.733 196.155 472.1C194.322 472.467 192.472 472.65 190.605 472.65C187.205 472.65 184.105 472.067 181.305 470.9C178.505 469.7 176.105 467.967 174.105 465.7C172.105 463.433 170.555 460.667 169.455 457.4C168.388 454.1 167.855 450.333 167.855 446.1C167.855 442.533 168.355 439.25 169.355 436.25C170.388 433.217 171.855 430.617 173.755 428.45C175.688 426.25 178.038 424.533 180.805 423.3C183.605 422.067 186.772 421.45 190.305 421.45ZM190.355 425C187.788 425 185.488 425.4 183.455 426.2C181.422 427 179.655 428.15 178.155 429.65C176.688 431.15 175.488 432.95 174.555 435.05C173.655 437.15 173.055 439.5 172.755 442.1H205.555C205.555 439.433 205.188 437.05 204.455 434.95C203.722 432.817 202.688 431.017 201.355 429.55C200.022 428.083 198.422 426.967 196.555 426.2C194.688 425.4 192.622 425 190.355 425ZM240.1 472H235.9L214.9 422.25H218.65C219.117 422.25 219.484 422.383 219.75 422.65C220.05 422.883 220.267 423.15 220.4 423.45L236.8 462.7C237.134 463.467 237.384 464.2 237.55 464.9C237.717 465.6 237.884 466.3 238.05 467C238.217 466.3 238.384 465.6 238.55 464.9C238.75 464.167 239 463.433 239.3 462.7L255.8 423.45C255.967 423.083 256.184 422.8 256.45 422.6C256.75 422.367 257.1 422.25 257.5 422.25H261.1L240.1 472ZM288.352 421.45C291.152 421.45 293.735 421.933 296.102 422.9C298.502 423.867 300.569 425.283 302.302 427.15C304.069 428.983 305.435 431.25 306.402 433.95C307.402 436.65 307.902 439.75 307.902 443.25C307.902 443.983 307.785 444.483 307.552 444.75C307.352 445.017 307.019 445.15 306.552 445.15H270.602V446.1C270.602 449.833 271.035 453.117 271.902 455.95C272.769 458.783 274.002 461.167 275.602 463.1C277.202 465 279.135 466.433 281.402 467.4C283.669 468.367 286.202 468.85 289.002 468.85C291.502 468.85 293.669 468.583 295.502 468.05C297.335 467.483 298.869 466.867 300.102 466.2C301.369 465.5 302.369 464.883 303.102 464.35C303.835 463.783 304.369 463.5 304.702 463.5C305.135 463.5 305.469 463.667 305.702 464L307.002 465.6C306.202 466.6 305.135 467.533 303.802 468.4C302.502 469.267 301.035 470.017 299.402 470.65C297.802 471.25 296.069 471.733 294.202 472.1C292.369 472.467 290.519 472.65 288.652 472.65C285.252 472.65 282.152 472.067 279.352 470.9C276.552 469.7 274.152 467.967 272.152 465.7C270.152 463.433 268.602 460.667 267.502 457.4C266.435 454.1 265.902 450.333 265.902 446.1C265.902 442.533 266.402 439.25 267.402 436.25C268.435 433.217 269.902 430.617 271.802 428.45C273.735 426.25 276.085 424.533 278.852 423.3C281.652 422.067 284.819 421.45 288.352 421.45ZM288.402 425C285.835 425 283.535 425.4 281.502 426.2C279.469 427 277.702 428.15 276.202 429.65C274.735 431.15 273.535 432.95 272.602 435.05C271.702 437.15 271.102 439.5 270.802 442.1H303.602C303.602 439.433 303.235 437.05 302.502 434.95C301.769 432.817 300.735 431.017 299.402 429.55C298.069 428.083 296.469 426.967 294.602 426.2C292.735 425.4 290.669 425 288.402 425ZM326.826 399.25V472H322.076V399.25H326.826ZM376.157 472C375.157 472 374.54 471.533 374.307 470.6L373.607 464.25C372.24 465.583 370.873 466.783 369.507 467.85C368.173 468.917 366.773 469.817 365.307 470.55C363.84 471.283 362.257 471.833 360.557 472.2C358.857 472.6 356.99 472.8 354.957 472.8C353.257 472.8 351.607 472.55 350.007 472.05C348.407 471.55 346.99 470.783 345.757 469.75C344.523 468.717 343.523 467.4 342.757 465.8C342.023 464.167 341.657 462.217 341.657 459.95C341.657 457.85 342.257 455.9 343.457 454.1C344.657 452.3 346.523 450.733 349.057 449.4C351.623 448.067 354.907 447 358.907 446.2C362.94 445.4 367.773 444.933 373.407 444.8V439.6C373.407 435 372.407 431.467 370.407 429C368.44 426.5 365.507 425.25 361.607 425.25C359.207 425.25 357.157 425.583 355.457 426.25C353.79 426.917 352.373 427.65 351.207 428.45C350.04 429.25 349.09 429.983 348.357 430.65C347.623 431.317 347.007 431.65 346.507 431.65C345.84 431.65 345.34 431.35 345.007 430.75L344.157 429.3C346.757 426.7 349.49 424.733 352.357 423.4C355.223 422.067 358.473 421.4 362.107 421.4C364.773 421.4 367.107 421.833 369.107 422.7C371.107 423.533 372.757 424.75 374.057 426.35C375.39 427.917 376.39 429.833 377.057 432.1C377.723 434.333 378.057 436.833 378.057 439.6V472H376.157ZM356.157 469.35C358.09 469.35 359.857 469.15 361.457 468.75C363.09 468.317 364.59 467.733 365.957 467C367.357 466.233 368.657 465.333 369.857 464.3C371.057 463.267 372.24 462.15 373.407 460.95V448C368.673 448.133 364.59 448.5 361.157 449.1C357.757 449.667 354.94 450.45 352.707 451.45C350.507 452.45 348.873 453.65 347.807 455.05C346.773 456.417 346.257 457.983 346.257 459.75C346.257 461.417 346.523 462.867 347.057 464.1C347.623 465.3 348.357 466.3 349.257 467.1C350.157 467.867 351.207 468.433 352.407 468.8C353.607 469.167 354.857 469.35 356.157 469.35ZM428.289 472C427.456 472 426.973 471.567 426.839 470.7L426.339 462.85C424.139 465.85 421.556 468.233 418.589 470C415.656 471.767 412.356 472.65 408.689 472.65C402.589 472.65 397.823 470.533 394.389 466.3C390.989 462.067 389.289 455.717 389.289 447.25C389.289 443.617 389.756 440.233 390.689 437.1C391.656 433.933 393.056 431.2 394.889 428.9C396.756 426.567 399.023 424.733 401.689 423.4C404.389 422.067 407.489 421.4 410.989 421.4C414.356 421.4 417.273 422.033 419.739 423.3C422.206 424.533 424.339 426.35 426.139 428.75V399.25H430.939V472H428.289ZM410.039 468.8C413.339 468.8 416.323 467.95 418.989 466.25C421.656 464.55 424.039 462.183 426.139 459.15V432.9C424.206 430.067 422.073 428.067 419.739 426.9C417.439 425.733 414.823 425.15 411.889 425.15C408.956 425.15 406.389 425.683 404.189 426.75C401.989 427.817 400.139 429.333 398.639 431.3C397.173 433.233 396.056 435.567 395.289 438.3C394.556 441 394.189 443.983 394.189 447.25C394.189 454.65 395.556 460.1 398.289 463.6C401.023 467.067 404.939 468.8 410.039 468.8ZM466.579 421.45C470.146 421.45 473.329 422.067 476.129 423.3C478.963 424.5 481.346 426.217 483.279 428.45C485.213 430.683 486.679 433.383 487.679 436.55C488.713 439.683 489.229 443.2 489.229 447.1C489.229 451 488.713 454.517 487.679 457.65C486.679 460.783 485.213 463.467 483.279 465.7C481.346 467.933 478.963 469.65 476.129 470.85C473.329 472.05 470.146 472.65 466.579 472.65C463.013 472.65 459.813 472.05 456.979 470.85C454.179 469.65 451.796 467.933 449.829 465.7C447.896 463.467 446.413 460.783 445.379 457.65C444.379 454.517 443.879 451 443.879 447.1C443.879 443.2 444.379 439.683 445.379 436.55C446.413 433.383 447.896 430.683 449.829 428.45C451.796 426.217 454.179 424.5 456.979 423.3C459.813 422.067 463.013 421.45 466.579 421.45ZM466.579 468.9C469.546 468.9 472.129 468.4 474.329 467.4C476.563 466.367 478.413 464.9 479.879 463C481.379 461.1 482.496 458.817 483.229 456.15C483.963 453.45 484.329 450.433 484.329 447.1C484.329 443.8 483.963 440.8 483.229 438.1C482.496 435.4 481.379 433.1 479.879 431.2C478.413 429.267 476.563 427.783 474.329 426.75C472.129 425.717 469.546 425.2 466.579 425.2C463.613 425.2 461.013 425.717 458.779 426.75C456.579 427.783 454.729 429.267 453.229 431.2C451.763 433.1 450.646 435.4 449.879 438.1C449.146 440.8 448.779 443.8 448.779 447.1C448.779 450.433 449.146 453.45 449.879 456.15C450.646 458.817 451.763 461.1 453.229 463C454.729 464.9 456.579 466.367 458.779 467.4C461.013 468.4 463.613 468.9 466.579 468.9Z" fill="black" fill-opacity="0.45"/>
<path d="M51.4473 366.8C51.4473 387.707 54.2473 407.773 59.8473 427C65.5407 446.133 73.9873 464.613 85.1873 482.44C85.8407 483.467 86.1674 484.447 86.1674 485.38C86.1674 486.78 85.514 487.807 84.2073 488.46L78.3273 492.1C71.1407 481.087 65.074 470.4 60.1273 460.04C55.274 449.773 51.354 439.553 48.3673 429.38C45.3807 419.113 43.1873 408.847 41.7873 398.58C40.4807 388.313 39.8273 377.72 39.8273 366.8C39.8273 355.88 40.4807 345.287 41.7873 335.02C43.1873 324.66 45.3807 314.393 48.3673 304.22C51.354 293.953 55.274 283.687 60.1273 273.42C65.074 263.06 71.1407 252.373 78.3273 241.36L84.2073 245C85.4207 245.653 86.0273 246.633 86.0273 247.94C86.0273 248.873 85.7007 249.853 85.0473 250.88C73.9407 268.8 65.5407 287.373 59.8473 306.6C54.2473 325.733 51.4473 345.8 51.4473 366.8Z" fill="black" fill-opacity="0.3"/>
<path d="M542.467 366.8C542.467 345.8 539.621 325.733 533.927 306.6C528.327 287.373 519.974 268.8 508.867 250.88C508.214 249.853 507.887 248.873 507.887 247.94C507.887 246.633 508.494 245.653 509.707 245L515.587 241.36C522.681 252.373 528.701 263.06 533.647 273.42C538.594 283.687 542.561 293.953 545.547 304.22C548.534 314.393 550.681 324.66 551.987 335.02C553.387 345.287 554.087 355.88 554.087 366.8C554.087 377.72 553.387 388.313 551.987 398.58C550.681 408.847 548.534 419.113 545.547 429.38C542.561 439.553 538.594 449.773 533.647 460.04C528.701 470.4 522.681 481.087 515.587 492.1L509.707 488.46C508.401 487.807 507.747 486.78 507.747 485.38C507.747 484.447 508.074 483.467 508.727 482.44C519.927 464.613 528.327 446.133 533.927 427C539.621 407.773 542.467 387.707 542.467 366.8Z" fill="black" fill-opacity="0.3"/>
</svg>
